<svg xmlns="http://www.w3.org/2000/svg" viewBox="0 0 256 256" width="256" height="256">

<defs>
  <filter id="shadow" x="-30%" y="-30%" width="160%" height="160%">
    <feDropShadow dx="0" dy="5" stdDeviation="5" flood-color="#000000" flood-opacity="0.22"/>
  </filter>
  <linearGradient id="sunGrad" x1="0" y1="0" x2="1" y2="1">
    <stop offset="0%" stop-color="#FFF4A8"/>
    <stop offset="52%" stop-color="#F6C64A"/>
    <stop offset="100%" stop-color="#D99A18"/>
  </linearGradient>
  <linearGradient id="cloudGrad" x1="0" y1="0" x2="0.9" y2="1">
    <stop offset="0%" stop-color="#FFFFFF"/>
    <stop offset="70%" stop-color="#E8EEF4"/>
    <stop offset="100%" stop-color="#C8D3DE"/>
  </linearGradient>
  <linearGradient id="cloudDarkGrad" x1="0" y1="0" x2="1" y2="1">
    <stop offset="0%" stop-color="#E4EAF0"/>
    <stop offset="100%" stop-color="#8795A6"/>
  </linearGradient>
  <linearGradient id="moonGrad" x1="0" y1="0" x2="1" y2="1">
    <stop offset="0%" stop-color="#FFF8D6"/>
    <stop offset="60%" stop-color="#EFD783"/>
    <stop offset="100%" stop-color="#BFA451"/>
  </linearGradient>
  <linearGradient id="rainGrad" x1="0" y1="0" x2="0" y2="1">
    <stop offset="0%" stop-color="#65D8FF"/>
    <stop offset="100%" stop-color="#1D77D3"/>
  </linearGradient>
  <linearGradient id="mistGrad" x1="0" y1="0" x2="1" y2="0">
    <stop offset="0%" stop-color="#FFFFFF" stop-opacity="0.25"/>
    <stop offset="50%" stop-color="#F7FBFF" stop-opacity="0.95"/>
    <stop offset="100%" stop-color="#FFFFFF" stop-opacity="0.25"/>
  </linearGradient>
</defs>


<g filter="url(#shadow)">
  <path d="M54 159h139c25 0 45-17 45-39 0-20-17-37-39-39-9-29-36-49-69-49-36 0-66 23-72 56-24 1-44 17-44 38 0 18 18 33 40 33z"
        fill="url(#cloudDarkGrad)" stroke="#EAF0F5" stroke-width="5" stroke-linejoin="round"/>
</g>

<g filter="url(#shadow)">
  <path d="M140 153l-27 43h24l-12 39 43-57h-25l18-25z"
        fill="#FFD84D" stroke="#FFF2A5" stroke-width="4" stroke-linejoin="round"/>
</g>
<g fill="url(#rainGrad)">
  <path d="M82 174c0 0-9 13-9 19 0 5 4 9 9 9s9-4 9-9c0-6-9-19-9-19z"/>
  <path d="M190 174c0 0-9 13-9 19 0 5 4 9 9 9s9-4 9-9c0-6-9-19-9-19z"/>
</g>

</svg>